{"title":"Mars Needs Moms TS XViD - IMAGiNE","uid":6254401,"size":1513892477,"categoryP":"video","categoryS":"movies","magnet":"?xt=urn:btih:c8ea540f5ca0cd31fd3c8d2e8ff0304f3ab8da03&amp;dn=Mars+Needs+Moms+TS+XViD+-+IMAGiNE&amp;tr=udp%3A%2F%2Ftracker.openbittorrent.com%3A80&amp;tr=udp%3A%2F%2Fopen.demonii.com%3A1337&amp;tr=udp%3A%2F%2Ftracker.coppersurfer.tk%3A6969&amp;tr=udp%3A%2F%2Fexodus.desync.com%3A6969","seeders":0,"leechers":1,"uploader":"papis_nasty_KVCD","files":4,"time":1300528765,"description":"********************************************************************************\n************************************\nMars Needs Moms TS XViD - IMAGiNE\n********************************************************************************\n************************************\n\nRipper ...........: IMAGiNE IMDB Rating.......:7.8/10\nVideo Codec.......: XVID Release Date......:18/03/11\nAudio Codec.......:MP3 Theatre Date......:11/03/10\nAudio Bitrate.....:128 Runtime.......:1h 21mn\nSubtitles.........:NIL Language..........:ENGLISH\nResolution...... 720 x 304 IMDb URL.......... http://www.imdb.com/title/tt1305591/\n\n\nDETAILS:\n\nVideo\nID : 0\nFormat : MPEG-4 Visual\nFormat profile : Advanced Simple@L5\nFormat settings, BVOP : 2\nFormat settings, QPel : No\nFormat settings, GMC : No warppoints\nFormat settings, Matrix : Default (MPEG)\nMuxing mode : Packed bitstream\nCodec ID : XVID\nCodec ID/Hint : XviD\nDuration : 1h 21mn\nBit rate : 2 294 Kbps\nWidth : 720 pixels\nHeight : 304 pixels\nDisplay aspect ratio : 2.35:1\nFrame rate : 25.000 fps\nColor space : YUV\nChroma subsampling : 4:2:0\nBit depth : 8 bits\nScan type : Progressive\nCompression mode : Lossy\nBits/(Pixel*Frame) : 0.419\nStream size : 1.30 GiB (94%)\nWriting library : XviD 61\n\nAudio\nID : 1\nFormat : MPEG Audio\nFormat version : Version 1\nFormat profile : Layer 3\nCodec ID : 55\nCodec ID/Hint : MP3\nDuration : 1h 21mn\nBit rate mode : Constant\nBit rate : 128 Kbps\nChannel(s) : 2 channels\nSampling rate : 44.1 KHz\nCompression mode : Lossy\nStream size : 74.5 MiB (5%)\nAlignment : Split accross interleaves\nInterleave, duration : 40 ms (1.00 video frame)\nInterleave, preload duration : 500 ms\n\n\n\n","torrent":{"xt":"urn:btih:c8ea540f5ca0cd31fd3c8d2e8ff0304f3ab8da03","amp;dn":"Mars+Needs+Moms+TS+XViD+-+IMAGiNE","amp;tr":["udp%3A%2F%2Ftracker.openbittorrent.com%3A80","udp%3A%2F%2Fopen.demonii.com%3A1337","udp%3A%2F%2Ftracker.coppersurfer.tk%3A6969","udp%3A%2F%2Fexodus.desync.com%3A6969"],"infoHash":"c8ea540f5ca0cd31fd3c8d2e8ff0304f3ab8da03","infoHashBuffer":{"type":"Buffer","data":[200,234,84,15,92,160,205,49,253,60,141,46,143,240,48,79,58,184,218,3]},"announce":[],"urlList":[]}}